<?xml version="1.0" standalone="no"?>
<!DOCTYPE svg PUBLIC "-//W3C//DTD SVG 20010904//EN"
 "http://www.w3.org/TR/2001/REC-SVG-20010904/DTD/svg10.dtd">
<svg version="1.0" xmlns="http://www.w3.org/2000/svg"
 width="600.000000pt" height="600.000000pt" viewBox="0 0 600.000000 600.000000"
 preserveAspectRatio="xMidYMid meet">
<metadata>
Created by potrace 1.11, written by Peter Selinger 2001-2013
</metadata>
<g transform="translate(0.000000,600.000000) scale(0.100000,-0.100000)"
fill="#000000" stroke="none">
<path d="M1205 5358 c-3 -13 -10 -32 -15 -43 -4 -11 -15 -38 -24 -60 -10 -22
-21 -48 -27 -58 -5 -10 -7 -22 -4 -27 4 -6 2 -10 -3 -10 -6 0 -13 -12 -17 -27
-3 -15 -15 -45 -24 -68 -10 -22 -30 -69 -43 -105 -14 -36 -29 -74 -33 -85 -5
-11 -9 -23 -9 -27 -1 -3 -4 -10 -8 -14 -5 -4 -8 -16 -8 -26 0 -10 -5 -18 -12
-18 -6 0 -9 -3 -5 -6 3 -3 -5 -30 -18 -60 -13 -30 -25 -58 -26 -62 -1 -4 -5
-17 -10 -30 -5 -13 -9 -28 -9 -33 0 -5 -5 -9 -10 -9 -6 0 -9 -3 -8 -7 1 -5 -4
-24 -11 -43 -8 -19 -15 -37 -15 -40 -8 -29 -42 -106 -49 -111 -5 -3 -8 -8 -6
-10 4 -7 -34 -114 -43 -120 -5 -3 -9 -8 -8 -10 1 -4 -6 -30 -23 -74 -7 -16
-12 -32 -12 -35 -1 -3 -11 -27 -23 -54 -12 -27 -22 -50 -22 -52 0 -1 -5 -15
-12 -31 -6 -15 -12 -32 -14 -38 -2 -9 -30 -78 -67 -165 -6 -14 -11 -28 -12
-32 -2 -5 -4 -10 -5 -13 -1 -3 -4 -8 -5 -12 -1 -5 -8 -22 -14 -40 -7 -18 -12
-35 -11 -39 1 -4 -3 -10 -9 -13 -5 -4 -12 -19 -15 -35 -3 -15 -10 -34 -17 -42
-6 -8 -8 -14 -3 -14 5 0 4 -4 -2 -8 -5 -4 -18 -29 -28 -57 -10 -27 -22 -59
-26 -70 -37 -83 -38 -91 -25 -142 7 -27 16 -67 19 -88 4 -22 9 -49 11 -60 6
-26 24 -114 29 -140 3 -11 14 -65 26 -120 12 -55 24 -109 25 -120 2 -11 8 -42
14 -70 6 -27 13 -62 15 -77 3 -15 7 -31 10 -36 2 -4 7 -26 10 -47 3 -22 12
-71 21 -110 16 -71 19 -84 30 -145 4 -19 15 -73 25 -120 10 -47 21 -102 24
-124 4 -21 8 -42 11 -46 2 -4 7 -22 10 -41 2 -19 9 -54 15 -79 6 -25 13 -58
16 -75 5 -26 16 -39 59 -72 6 -5 28 -23 51 -40 23 -18 44 -30 48 -26 3 3 6 -1
6 -10 0 -9 4 -17 8 -17 10 0 105 -71 110 -82 2 -5 10 -8 18 -8 8 0 14 -4 14
-8 0 -12 61 -55 77 -55 7 0 11 -2 9 -5 -5 -4 31 -42 40 -42 3 0 11 -6 19 -12
7 -7 25 -22 41 -33 15 -11 33 -26 40 -32 7 -7 15 -13 18 -13 2 0 19 -13 37
-30 18 -16 36 -27 41 -24 4 3 8 -2 8 -10 0 -9 6 -16 14 -16 8 0 16 -4 18 -8 2
-4 24 -23 51 -42 26 -18 47 -37 47 -42 0 -5 4 -7 9 -4 5 3 11 -1 15 -9 3 -8
10 -15 16 -15 6 0 21 -10 33 -23 12 -12 35 -31 50 -40 27 -17 38 -26 89 -70
12 -9 24 -17 28 -17 4 0 22 -14 41 -30 19 -17 44 -40 57 -51 12 -11 22 -16 22
-12 0 4 5 0 11 -10 6 -9 14 -15 20 -12 5 4 9 2 9 -2 0 -5 27 -29 60 -53 33
-25 60 -48 60 -52 0 -5 6 -8 13 -8 6 0 29 -16 50 -36 20 -19 37 -32 37 -28 0
4 7 -1 15 -12 8 -10 15 -15 15 -10 0 4 9 -2 20 -15 l21 -24 -7 35 c-5 19 -8
45 -8 58 -1 12 -4 22 -8 22 -3 0 -5 8 -3 17 1 10 -1 23 -5 28 -4 6 -10 28 -14
50 -7 47 -13 81 -20 115 -8 38 -27 122 -33 150 -3 14 -6 34 -8 45 -1 11 -5 27
-8 35 -5 13 -11 41 -21 105 -2 11 -5 22 -6 25 -1 3 -3 10 -4 15 -1 6 -6 33
-11 60 -5 28 -10 52 -10 55 -11 41 -15 60 -19 85 -3 17 -13 64 -22 105 -9 41
-17 85 -17 98 -1 12 -4 22 -8 22 -4 0 -7 8 -7 18 1 15 -11 80 -28 152 -4 14
-7 34 -8 45 -2 11 -6 31 -10 43 -8 25 -14 56 -21 107 -2 17 -4 30 -5 30 -5 0
-8 40 -4 47 7 10 36 -5 70 -37 15 -14 33 -25 41 -25 8 0 12 -4 9 -9 -4 -5 7
-15 23 -22 16 -7 27 -17 25 -21 -3 -4 2 -8 11 -8 8 0 23 -9 32 -20 10 -11 23
-20 31 -20 7 0 10 -4 7 -10 -3 -5 1 -10 9 -10 9 0 16 -5 16 -12 0 -6 3 -9 6
-6 3 3 19 -7 37 -23 17 -16 33 -26 35 -24 3 2 13 -7 24 -20 11 -14 24 -23 29
-20 5 4 9 -1 9 -10 0 -9 5 -13 10 -10 6 3 10 1 10 -4 0 -6 6 -11 13 -11 7 0
19 -9 27 -20 8 -11 20 -20 26 -20 7 0 14 -3 16 -7 5 -14 96 -83 107 -83 6 0
11 -4 11 -9 0 -4 28 -27 62 -50 33 -22 57 -41 52 -42 -5 0 2 -5 16 -11 14 -6
29 -10 33 -9 5 1 6 -3 2 -8 -6 -10 33 -37 48 -33 4 1 7 -5 7 -13 0 -8 7 -15
16 -15 8 0 12 -4 9 -10 -3 -5 1 -10 9 -10 9 0 16 -5 16 -11 0 -5 5 -7 10 -4 6
3 10 1 10 -4 0 -6 7 -11 15 -11 8 0 15 -7 15 -15 0 -8 9 -15 20 -15 12 0 20
-7 20 -17 0 -9 3 -14 6 -10 6 5 29 -11 66 -46 10 -10 24 -15 31 -11 7 4 9 4 5
-1 -4 -4 0 -14 8 -22 12 -13 18 -12 43 9 15 13 39 30 51 38 13 8 32 23 42 32
10 10 23 18 28 18 6 0 10 5 10 11 0 5 5 7 10 4 6 -3 10 1 10 10 0 9 4 14 9 10
6 -3 14 3 20 12 6 10 11 14 11 9 0 -5 11 3 25 18 14 15 25 24 25 20 0 -3 16 7
35 22 18 16 46 38 61 49 14 11 35 28 45 38 11 9 19 14 19 10 0 -5 5 0 11 10 5
9 14 17 19 17 15 0 49 33 44 42 -3 4 2 5 10 2 9 -3 16 -2 16 2 0 5 21 23 45
39 25 17 43 35 41 41 -3 7 3 10 14 7 12 -3 23 3 32 16 7 12 17 21 23 21 5 0
29 17 51 38 23 21 47 36 54 34 7 -3 10 0 7 5 -4 6 5 15 18 21 14 7 25 16 25
22 0 6 5 8 10 5 6 -3 10 -2 10 2 0 5 18 19 40 33 22 14 40 31 40 38 0 7 4 11
9 7 6 -3 14 3 20 12 6 10 11 14 11 10 0 -8 17 4 77 53 7 6 17 10 23 10 5 0 9
5 7 12 -1 7 3 12 8 13 6 0 15 4 22 8 18 11 25 -10 17 -46 -4 -17 -9 -41 -10
-52 -2 -15 -25 -116 -33 -142 -3 -9 -4 -15 -5 -30 -2 -16 -10 -55 -32 -153 -3
-14 -7 -37 -8 -51 -2 -15 -6 -31 -9 -35 -2 -5 -8 -31 -11 -58 -4 -27 -9 -53
-11 -56 -2 -4 -7 -21 -10 -38 -3 -18 -13 -65 -21 -105 -9 -39 -17 -83 -18 -97
-1 -14 -5 -31 -9 -37 -4 -6 -9 -26 -12 -44 -2 -19 -7 -45 -10 -59 -3 -14 -8
-38 -10 -54 -2 -15 -7 -36 -10 -46 -3 -10 -8 -29 -10 -42 -3 -13 -8 -36 -11
-53 -4 -16 -8 -39 -10 -50 -1 -11 -9 -48 -17 -83 -9 -34 -16 -65 -16 -67 -1
-3 -1 -6 -2 -7 -1 -2 -3 -14 -4 -28 -9 -67 -12 -81 -18 -87 -4 -3 -7 -15 -7
-25 0 -16 11 -11 58 27 31 25 70 56 86 68 16 12 37 30 47 40 11 9 19 14 19 10
0 -3 9 4 20 17 11 13 20 20 20 16 0 -4 6 -1 13 6 8 7 26 22 41 33 16 11 33 25
40 31 6 5 49 39 96 74 47 35 87 67 90 70 3 3 21 17 40 30 19 13 42 32 51 42 9
10 20 18 23 18 4 0 14 6 21 12 16 15 22 20 85 68 25 19 48 39 52 45 4 5 8 6 8
2 0 -5 7 -1 16 7 9 9 32 29 52 44 21 15 42 32 48 37 6 6 23 19 38 30 16 11 34
26 41 33 8 6 18 12 23 12 6 0 12 3 14 8 2 4 23 23 48 42 61 48 80 63 95 78 8
6 18 12 24 12 6 0 11 5 11 10 0 6 4 10 9 10 6 0 27 16 48 35 21 19 43 35 49
35 7 0 14 7 18 15 3 8 13 15 21 15 9 0 14 4 11 9 -3 5 8 14 24 21 16 7 27 16
24 21 -3 5 2 9 10 9 8 0 20 9 26 20 6 11 9 20 6 20 -2 0 0 17 5 38 5 20 11 49
14 64 6 39 43 221 60 293 8 33 17 77 21 99 9 58 12 75 18 84 2 4 7 28 11 52 3
25 9 54 12 65 3 11 7 31 9 45 2 14 10 55 18 91 8 36 17 77 20 90 3 13 7 35 10
49 10 43 26 125 31 151 3 13 7 35 10 49 3 14 10 50 16 80 6 30 17 80 24 110 8
30 17 75 20 100 8 54 10 60 19 81 4 8 0 29 -9 45 -8 16 -15 35 -15 42 0 6 -5
12 -11 12 -5 0 -8 4 -5 9 4 5 0 22 -8 38 -19 35 -30 66 -28 76 1 4 -3 7 -8 7
-5 0 -9 3 -8 8 3 15 -15 62 -24 62 -5 0 -7 4 -4 9 3 5 -1 22 -9 37 -8 16 -15
33 -15 37 0 11 -25 70 -49 117 -10 19 -17 43 -16 53 2 9 -1 17 -6 17 -5 0 -9
5 -9 11 0 6 -6 25 -14 42 -8 18 -38 93 -67 167 -29 74 -56 137 -59 140 -4 5
-7 14 -14 45 -1 6 -10 27 -19 49 -9 21 -17 41 -17 44 0 3 -8 24 -18 46 -28 62
-63 150 -66 163 -1 7 -5 16 -9 19 -4 4 -7 15 -7 25 0 9 -4 19 -10 21 -5 2 -11
12 -13 23 -4 21 -11 40 -32 90 -6 17 -25 62 -40 100 -15 39 -34 84 -41 102 -8
17 -14 35 -14 40 0 4 -6 20 -14 35 -8 14 -19 43 -26 65 -7 21 -16 43 -20 48
-4 6 -13 28 -20 50 -7 22 -17 46 -23 53 -5 6 -7 12 -3 12 3 0 -3 17 -13 38
-10 20 -21 42 -22 49 -3 7 -20 -3 -44 -24 -22 -20 -39 -40 -38 -44 2 -5 -3 -6
-10 -3 -7 2 -22 -4 -32 -14 -11 -9 -38 -31 -60 -47 -22 -17 -45 -34 -51 -40
-6 -5 -23 -19 -38 -30 -48 -35 -119 -89 -137 -105 -36 -31 -49 -41 -49 -36 0
3 -10 -5 -23 -17 -12 -12 -35 -31 -51 -42 -32 -23 -75 -56 -130 -102 -8 -7
-18 -13 -22 -13 -4 0 -15 -10 -25 -22 -11 -11 -19 -17 -19 -13 0 4 -8 -2 -19
-13 -10 -12 -23 -22 -29 -22 -6 0 -12 -4 -14 -8 -1 -4 -32 -30 -68 -57 -86
-66 -88 -67 -110 -89 -11 -11 -20 -16 -20 -11 0 4 -8 -2 -19 -13 -10 -12 -21
-22 -25 -22 -7 0 -23 -12 -54 -41 -9 -8 -35 -28 -57 -44 -22 -16 -55 -42 -72
-59 -18 -16 -33 -27 -33 -23 0 4 -8 -1 -18 -10 -10 -10 -31 -27 -46 -38 -16
-11 -42 -32 -59 -47 -18 -16 -35 -28 -39 -28 -15 0 -45 -37 -56 -68 -6 -18 -8
-32 -5 -32 3 0 1 -6 -5 -13 -6 -7 -9 -22 -8 -32 2 -11 0 -25 -5 -30 -4 -6 -10
-28 -13 -50 -3 -22 -8 -51 -11 -65 -3 -14 -8 -38 -11 -55 -3 -16 -10 -50 -15
-75 -6 -25 -13 -56 -15 -70 -2 -14 -7 -38 -11 -55 -4 -16 -7 -32 -8 -35 0 -3
-4 -21 -8 -40 -4 -19 -9 -45 -12 -57 -9 -43 -15 -68 -25 -118 -6 -27 -13 -61
-16 -75 -3 -14 -7 -36 -9 -50 -4 -26 -5 -30 -24 -113 -6 -26 -14 -64 -17 -85
-3 -20 -8 -40 -10 -43 -2 -3 -6 -21 -9 -40 -3 -19 -17 -86 -30 -149 -13 -63
-26 -128 -29 -145 -13 -70 -18 -85 -32 -85 -8 0 -14 3 -15 8 0 4 -2 16 -5 27
-2 11 -6 31 -8 45 -3 14 -7 36 -10 50 -3 14 -8 36 -11 50 -3 14 -8 36 -11 50
-3 14 -7 35 -10 48 -2 12 -7 34 -10 50 -3 15 -7 36 -9 47 -2 11 -4 20 -5 20
-2 0 -8 31 -15 70 -2 17 -6 39 -9 50 -2 11 -12 56 -21 100 -9 44 -19 89 -21
100 -3 11 -7 36 -10 55 -3 19 -8 42 -11 50 -3 8 -7 29 -9 45 -3 17 -9 32 -14
33 -6 2 -8 8 -4 13 3 5 1 33 -5 62 -6 28 -13 63 -15 77 -3 14 -6 27 -7 30 -1
3 -3 10 -4 15 -1 6 -4 24 -8 40 -4 17 -9 44 -13 60 -11 57 -15 80 -18 95 -1 8
-6 29 -9 45 -13 53 -23 103 -31 148 -10 54 -19 66 -76 107 -43 30 -46 32 -95
75 -22 19 -43 35 -47 35 -8 0 -46 30 -80 63 -10 9 -22 17 -28 17 -5 0 -10 5
-10 10 0 6 -6 10 -14 10 -8 0 -16 3 -18 8 -3 8 -54 49 -88 72 -12 8 -35 26
-50 40 -15 14 -38 32 -50 40 -12 8 -29 21 -36 28 -8 7 -14 10 -14 5 0 -4 -5
-1 -10 8 -5 9 -28 29 -52 45 -24 16 -47 35 -51 41 -4 7 -14 13 -22 13 -7 0
-15 3 -17 8 -6 13 -136 112 -148 112 -6 0 -8 5 -5 10 3 6 1 10 -5 10 -6 0 -17
6 -25 13 -20 19 -47 40 -85 67 -38 27 -65 48 -85 68 -8 6 -16 12 -19 12 -3 0
-17 11 -32 25 -14 13 -31 22 -36 19 -4 -3 -7 0 -6 8 2 7 -3 12 -9 11 -7 -2
-13 1 -13 5 0 5 -27 28 -60 52 -33 24 -60 47 -60 52 0 5 -4 7 -9 4 -5 -3 -12
1 -15 10 -4 9 -9 14 -12 11 -3 -2 -17 6 -32 20 -65 60 -60 57 -67 31z"/>
</g>
</svg>
