<?xml version="1.0" standalone="no"?>
<!DOCTYPE svg PUBLIC "-//W3C//DTD SVG 20010904//EN"
 "http://www.w3.org/TR/2001/REC-SVG-20010904/DTD/svg10.dtd">
<svg version="1.0" xmlns="http://www.w3.org/2000/svg"
 width="3585.000000pt" height="3585.000000pt" viewBox="0 0 3585.000000 3585.000000"
 preserveAspectRatio="xMidYMid meet">
<metadata>
Created by potrace 1.11, written by Peter Selinger 2001-2013
</metadata>
<g transform="translate(0.000000,3585.000000) scale(0.100000,-0.100000)"
fill="#000000" stroke="none">
<path d="M5480 32334 c-89 -16 -227 -48 -235 -54 -5 -4 -23 -10 -40 -14 -52
-13 -227 -105 -307 -163 -94 -68 -219 -188 -278 -268 -25 -33 -47 -62 -50 -65
-20 -20 -116 -196 -147 -270 -57 -138 -82 -218 -107 -355 -21 -109 -27 -331
-13 -450 31 -275 144 -548 312 -755 62 -76 84 -100 481 -506 166 -170 343
-352 394 -404 51 -52 217 -223 370 -380 153 -157 319 -328 370 -380 51 -52
219 -225 374 -383 154 -159 324 -333 376 -387 52 -54 222 -228 376 -387 155
-158 326 -334 380 -390 55 -56 227 -233 384 -393 157 -161 325 -333 373 -384
49 -50 216 -221 370 -380 155 -158 320 -328 367 -376 47 -48 221 -226 386
-396 166 -170 343 -352 394 -404 50 -52 219 -225 373 -384 155 -159 320 -328
367 -376 47 -48 212 -217 366 -376 155 -159 323 -332 374 -384 51 -52 227
-233 391 -401 164 -168 334 -342 376 -387 43 -44 205 -210 359 -369 155 -158
328 -335 384 -393 56 -58 227 -233 380 -390 153 -157 324 -332 380 -390 56
-58 224 -230 373 -383 150 -154 316 -325 370 -380 55 -56 228 -235 387 -397
158 -162 320 -329 360 -370 40 -41 204 -209 364 -374 160 -164 334 -342 386
-396 52 -53 222 -227 376 -386 155 -159 323 -332 374 -384 615 -635 681 -697
809 -760 208 -103 474 -101 686 6 130 66 123 60 570 519 154 158 324 333 379
389 54 55 228 234 386 396 159 162 328 336 377 387 48 50 217 224 374 385 158
161 324 332 370 380 46 47 217 223 380 390 163 167 334 341 379 388 45 47 210
216 365 375 156 160 326 334 378 388 53 55 222 228 375 385 154 158 319 328
367 377 48 50 221 227 384 394 163 167 330 339 371 381 41 42 204 209 362 371
157 162 330 339 383 394 87 89 513 527 765 785 112 115 612 628 754 774 54 55
223 229 376 386 153 157 317 326 365 375 48 50 214 221 370 380 155 160 325
333 376 386 52 53 222 228 379 389 157 161 327 335 378 389 52 53 221 226 375
385 155 158 325 332 377 386 52 54 226 232 386 396 160 165 329 338 375 386
46 47 208 214 360 370 152 155 325 333 384 393 59 61 225 232 370 380 304 312
320 330 399 439 50 70 162 279 170 318 2 7 6 20 9 28 57 149 82 314 81 530 0
203 -39 413 -100 547 -8 17 -14 34 -14 37 0 10 -88 187 -112 226 -174 280
-444 494 -743 587 -5 2 -50 13 -100 24 -100 23 -366 35 -445 20 -25 -5 -61
-12 -80 -15 -109 -18 -301 -92 -410 -160 -152 -94 -169 -110 -735 -691 -165
-169 -336 -345 -380 -390 -157 -160 -671 -689 -760 -780 -49 -51 -219 -225
-376 -387 -158 -161 -328 -336 -379 -388 -51 -52 -217 -223 -370 -380 -153
-157 -322 -330 -375 -385 -54 -55 -227 -233 -385 -395 -158 -162 -325 -334
-371 -381 -46 -48 -212 -218 -369 -379 -157 -161 -328 -336 -380 -390 -52 -54
-224 -230 -381 -391 -158 -162 -330 -339 -384 -394 -53 -55 -219 -225 -368
-379 -150 -153 -312 -320 -362 -371 -49 -51 -219 -224 -376 -386 -158 -162
-326 -334 -374 -384 -48 -49 -173 -178 -279 -286 -229 -235 -720 -738 -866
-889 -58 -60 -229 -236 -382 -392 -152 -155 -320 -328 -373 -383 -82 -85 -356
-366 -750 -770 -49 -51 -225 -231 -390 -401 -687 -706 -722 -737 -902 -828
-89 -44 -229 -91 -320 -108 -74 -13 -300 -17 -375 -6 -121 18 -265 65 -381
127 -164 87 -215 133 -767 701 -359 368 -412 423 -757 776 -154 159 -327 336
-383 394 -56 58 -227 233 -380 390 -153 157 -324 332 -380 390 -56 58 -227
233 -380 390 -153 157 -320 328 -371 382 -52 53 -227 233 -390 400 -163 166
-332 340 -375 384 -44 45 -209 215 -369 379 -159 163 -330 339 -380 390 -49
51 -226 232 -391 401 -166 170 -343 352 -394 404 -50 52 -219 225 -373 384
-361 370 -414 424 -757 776 -252 260 -517 531 -765 785 -146 150 -641 658
-761 782 -66 67 -239 245 -385 395 -147 150 -309 316 -360 369 -52 54 -212
218 -356 365 -144 148 -312 321 -374 384 -1058 1087 -1033 1062 -1163 1145
-126 80 -323 162 -436 180 -25 4 -54 10 -65 12 -27 7 -323 13 -355 7z"/>
<path d="M1927 29514 c-1 -1 -36 -5 -77 -8 -67 -6 -150 -17 -220 -31 -79 -14
-281 -74 -294 -86 -6 -5 -16 -9 -24 -9 -26 0 -258 -119 -352 -180 -121 -80
-192 -136 -293 -230 -198 -186 -379 -445 -484 -693 -39 -91 -108 -296 -116
-342 -3 -17 -12 -61 -20 -100 -9 -38 -18 -90 -21 -115 -3 -25 -9 -56 -13 -70
-4 -14 -9 -5144 -10 -11400 -1 -9444 0 -11390 12 -11461 33 -215 97 -395 203
-574 20 -33 45 -72 56 -86 12 -15 30 -39 41 -55 10 -16 67 -76 125 -134 331
-332 773 -457 1220 -345 382 95 705 371 890 758 29 59 53 113 54 120 1 7 4 17
7 22 9 15 56 203 64 255 4 25 10 54 13 65 3 11 6 4682 7 10380 1 6162 6 10360
11 10361 8 0 204 -197 574 -576 56 -58 278 -284 494 -504 215 -219 447 -456
516 -527 l125 -129 1 -9482 c0 -5216 4 -9512 8 -9548 30 -256 144 -550 283
-730 187 -242 411 -405 673 -489 262 -85 567 -79 819 16 324 121 602 379 756
698 64 132 104 247 122 345 2 14 8 44 14 68 5 23 12 82 16 130 4 48 7 3721 8
8163 l0 8076 104 -106 c56 -58 266 -272 465 -475 198 -203 408 -417 466 -476
58 -59 272 -278 477 -486 204 -208 426 -435 493 -504 67 -69 292 -298 500
-510 208 -212 428 -437 490 -500 61 -63 282 -288 490 -500 207 -212 426 -435
486 -496 60 -62 272 -278 470 -480 199 -203 420 -428 490 -500 71 -73 292
-298 491 -500 198 -203 416 -425 483 -494 67 -69 288 -294 490 -500 202 -206
426 -434 496 -507 71 -72 292 -297 490 -500 199 -202 412 -420 474 -483 62
-63 282 -288 490 -500 208 -212 431 -440 496 -507 232 -237 871 -888 1034
-1052 246 -249 388 -339 632 -405 276 -74 550 -48 813 79 200 96 197 93 855
765 424 432 480 490 995 1015 204 208 422 430 485 495 63 65 279 285 480 490
201 204 421 429 489 498 67 70 292 300 500 511 207 211 428 437 491 501 63 65
278 284 477 486 198 203 414 423 478 489 65 66 285 290 489 499 204 208 427
436 496 506 69 70 288 294 486 496 199 203 417 426 485 495 68 70 288 294 489
499 201 205 418 427 484 494 133 136 788 804 971 991 330 337 865 882 958 978
57 59 109 107 113 107 5 0 9 -3494 9 -8063 0 -4434 4 -8091 8 -8127 15 -133
32 -206 77 -336 173 -501 598 -864 1090 -933 145 -20 365 -6 505 32 71 20 235
86 267 108 14 11 29 19 33 19 18 0 188 127 251 187 68 65 151 160 187 213 51
74 67 101 99 160 93 173 151 370 174 590 4 36 7 4307 8 9493 l1 9427 108 113
c60 61 220 225 355 363 365 371 953 971 1149 1172 l173 177 1 -10335 c0 -5684
3 -10355 5 -10380 8 -84 45 -254 75 -344 74 -222 188 -406 354 -571 223 -223
487 -353 775 -382 113 -12 325 -5 371 11 8 3 25 7 39 10 98 16 270 85 384 153
175 105 353 280 461 452 78 125 157 311 189 446 48 203 45 -537 43 11610 -1
6243 -6 11364 -9 11380 -4 17 -9 48 -12 70 -39 293 -139 580 -289 830 -57 95
-139 211 -186 265 -13 14 -46 51 -74 84 -47 52 -142 141 -238 219 -118 98
-475 297 -532 297 -8 0 -17 3 -21 8 -4 4 -11 7 -14 8 -4 0 -14 4 -22 7 -13 5
-124 39 -140 42 -3 1 -18 4 -35 8 -412 98 -852 48 -1228 -139 -100 -49 -271
-156 -324 -200 -12 -11 -44 -37 -73 -59 -43 -34 -323 -315 -945 -950 -66 -67
-282 -287 -480 -489 -198 -202 -416 -425 -485 -496 -69 -70 -289 -296 -490
-500 -562 -573 -1173 -1197 -1470 -1500 -73 -74 -293 -299 -490 -500 -197
-201 -411 -419 -475 -485 -65 -66 -291 -297 -504 -513 -212 -217 -438 -447
-501 -512 -63 -65 -280 -286 -481 -492 -202 -205 -420 -427 -484 -493 -65 -66
-283 -289 -485 -495 -202 -206 -427 -436 -500 -510 -73 -74 -295 -301 -494
-504 -198 -202 -413 -421 -476 -486 -63 -64 -287 -292 -497 -506 -209 -214
-434 -444 -500 -511 -65 -67 -287 -294 -494 -505 -207 -211 -425 -433 -485
-494 -60 -61 -276 -282 -480 -490 -205 -209 -422 -431 -484 -494 -62 -63 -282
-288 -490 -500 -208 -212 -433 -442 -501 -511 -1236 -1263 -1269 -1296 -1369
-1361 -152 -99 -303 -162 -465 -191 -92 -17 -296 -20 -370 -6 -27 5 -62 12
-77 14 -139 25 -360 129 -488 230 -44 34 -602 598 -1416 1431 -60 62 -264 270
-454 463 -190 194 -410 419 -490 501 -80 81 -312 318 -516 527 -205 208 -427
434 -494 503 -67 69 -285 291 -484 494 -198 202 -419 427 -489 500 -71 72
-294 300 -497 506 -202 206 -421 430 -486 497 -66 66 -282 287 -480 490 -199
202 -420 427 -490 500 -71 72 -293 299 -494 503 -201 205 -412 421 -470 480
-58 59 -277 282 -487 496 -209 214 -441 450 -513 524 -73 74 -293 299 -490
500 -197 201 -409 417 -470 480 -62 63 -283 288 -490 500 -208 212 -436 444
-506 517 -71 72 -290 295 -486 495 -196 200 -409 417 -473 483 -65 66 -287
293 -494 504 -207 211 -432 441 -501 511 -69 70 -291 297 -495 505 -203 208
-480 490 -615 628 -708 723 -782 791 -1006 917 -150 84 -355 167 -456 185 -17
3 -34 8 -38 10 -13 8 -244 42 -300 44 -91 4 -182 6 -183 5z"/>
</g>
</svg>
