<?xml version="1.0" standalone="no"?>
<!DOCTYPE svg PUBLIC "-//W3C//DTD SVG 20010904//EN"
 "http://www.w3.org/TR/2001/REC-SVG-20010904/DTD/svg10.dtd">
<svg version="1.0" xmlns="http://www.w3.org/2000/svg"
 width="546.000000pt" height="546.000000pt" viewBox="0 0 546.000000 546.000000"
 preserveAspectRatio="xMidYMid meet">
<metadata>
Created by potrace 1.11, written by Peter Selinger 2001-2013
</metadata>
<g transform="translate(0.000000,546.000000) scale(0.100000,-0.100000)"
fill="#000000" stroke="none">
<path d="M2587 5454 c-1 -1 -40 -4 -87 -8 -89 -7 -132 -12 -190 -23 -19 -3
-39 -7 -45 -7 -76 -9 -295 -65 -405 -103 -159 -55 -364 -147 -472 -213 -18
-11 -40 -23 -48 -27 -28 -12 -194 -126 -260 -176 -426 -330 -729 -749 -920
-1272 -12 -33 -23 -64 -24 -70 -1 -5 -10 -37 -20 -70 -72 -241 -104 -495 -100
-790 1 -115 5 -221 7 -235 3 -14 8 -50 11 -80 30 -277 132 -603 276 -885 134
-262 281 -465 485 -671 230 -232 446 -389 730 -531 187 -94 458 -189 633 -223
32 -6 67 -13 80 -16 64 -12 81 -15 132 -20 l55 -6 0 1412 0 1412 77 98 c42 54
91 116 110 136 105 119 138 153 139 141 0 -6 1 -734 1 -1616 l1 -1604 126 6
c69 4 135 8 146 11 11 2 49 7 85 11 36 4 83 11 105 15 22 5 56 12 75 15 68 12
196 47 314 86 124 41 133 45 281 113 424 194 811 518 1080 904 199 285 352
626 420 932 18 78 44 214 49 250 22 158 28 487 13 645 -83 868 -587 1654
-1343 2093 -340 197 -700 313 -1114 358 -58 6 -397 13 -403 8z m1293 -1353 c0
-5 -19 -12 -42 -16 -24 -4 -110 -29 -191 -56 -396 -131 -790 -410 -1117 -789
-36 -41 -68 -77 -71 -80 -4 -3 -56 -71 -116 -151 -120 -159 -230 -323 -369
-549 -48 -80 -102 -160 -119 -179 l-31 -34 -70 103 c-38 56 -74 110 -79 119
-44 71 -438 657 -443 659 -4 1 -7 -407 -7 -908 0 -500 -2 -910 -5 -910 -3 1
-76 108 -163 240 l-157 240 2 942 3 943 168 0 c93 0 172 -2 176 -5 5 -3 20
-25 36 -49 15 -24 55 -87 90 -140 34 -53 99 -154 145 -226 46 -71 111 -173
145 -225 34 -52 76 -119 95 -148 18 -29 37 -51 41 -50 3 2 30 32 58 68 103
128 138 167 278 307 324 324 699 571 1098 725 155 60 387 129 480 143 35 5
156 30 163 34 1 0 2 -3 2 -8z m50 -405 c41 -4 86 -8 100 -11 72 -14 89 -18
135 -32 100 -31 319 -149 340 -183 4 -6 -88 -143 -157 -232 -12 -17 -19 -14
-93 32 -154 96 -304 143 -445 139 -212 -6 -333 -132 -284 -297 15 -53 34 -76
94 -114 37 -23 189 -80 250 -93 143 -30 342 -95 435 -143 84 -44 179 -136 218
-210 69 -136 60 -354 -20 -498 -85 -153 -252 -253 -468 -281 -93 -13 -338 -4
-365 12 -4 2 -22 7 -41 10 -82 14 -296 103 -340 141 -8 8 -19 14 -23 14 -9 0
-118 83 -134 102 -9 12 1 29 51 89 34 41 77 93 96 116 l33 41 64 -49 c180
-136 335 -193 529 -193 114 0 187 19 252 68 53 39 82 90 87 151 11 159 -74
223 -414 310 -296 76 -431 136 -522 233 -84 90 -116 180 -116 328 -1 143 43
262 132 362 62 69 202 146 311 171 53 12 193 29 210 25 6 -1 44 -5 85 -8z"/>
</g>
</svg>
