<svg version="1" xmlns="http://www.w3.org/2000/svg" width="614.667" height="614.667" viewBox="0 0 461.000000 461.000000"><path d="M121 79.1c-14.9 1.8-28.4 7.8-38.2 16.9-5.8 5.5-14.1 17.7-13.1 19.3.3.5.8.5 1.2.1.3-.5 1.3-1.1 2.1-1.3.8-.2 3.3-.8 5.5-1.3s4.9-1.2 6-1.5c5-1.3 24.3-1 30 .5 9.4 2.3 26.4 11 24.5 12.4-.3.2-2.8 2.1-5.7 4.3-5.4 4-5.6 5.1-1.9 9.2.6.6 2.8 3.6 4.9 6.6l3.9 5.5v12.3c0 12.6-.8 31.8-1.7 39.9-.2 2.5-.7 7.9-1.1 12-.8 9.7-1.7 17.4-2.9 26-1 6.8-1.5 10.9-2 15-.3 2.5-.8 5.2-1 6-.2.8-.7 3.5-1 6-.4 2.5-2 11.2-3.6 19.5-1.7 8.2-3.2 16.1-3.5 17.5-.4 2.1-.8 4.2-1.9 9-.1.3-.5 2.1-1 4s-.9 4.2-1 5c-.1.8-1.2 5.3-2.4 9.9-2.5 9.8-2.5 10.5-.8 12.3.6.7 1.3 1.9 1.5 2.7.4 2.1 8.3 13.2 12.6 18 8.1 8.7 17.7 17.4 19 17.2.3 0 1.7 1 3 2.2 3.6 3.4 19.9 12.2 29.1 15.8 4.4 1.7 8.7 3.4 9.6 3.9 1 .5 2.1.4 2.9-.3 1-.9 1.1-.9.6 0-.5.9-.1 1.3 1.1 1.3 1.3 0 .7-1.1-2.5-4-2.4-2.2-4-4-3.7-4 .3 0-1.2-2.3-3.4-5-4.8-6.1-12.9-19.3-16.8-27.5-1.5-3.3-3-6.2-3.3-6.5-.3-.3-.6-1-.7-1.5-.1-.6-1.1-3.5-2.3-6.5-1.9-5.2-2-5.7-.4-10.5.9-2.8 1.8-5.8 2-6.7.7-3 1.3-5.2 2.3-8.6.5-1.7.8-3.2.6-3.2-.3 0 0-1.1.5-2.5s1.2-3.6 1.4-4.8c.3-1.2 1.2-5.4 2-9.2.8-3.9 1.8-8.6 2.1-10.5.3-1.9 1-5.4 1.6-7.7.5-2.4.8-4.6.7-5-.1-.5.1-2.2.5-3.8.7-3.5 1.5-8.6 2.2-15.3.3-2.6.8-6.3 1-8.2.9-7.1 1.5-14.8 2.1-26.5.2-6.5.7-12.1 1-12.4.4-.4 17.8 16.3 24.6 23.6 1.2 1.2 2.5 2 3 1.7.5-.3.7-.2.6.3-.2.4-.1.8.2.8.3 0 2 1.3 3.7 3 5.8 5.6 8.1 7.5 9.2 7.5.6 0 1.1.3 1.1.7 0 .5 1.6 1.9 3.4 3.1l3.5 2.4 4.3-3c10.3-7.2 36.5-30.2 34.2-30.2-.4 0 .6-1 2.2-2.2 1.5-1.2 4.3-3.8 6.1-5.8 3.2-3.5 3.2-3.5 3.3-1 .6 19.2 1.5 30.7 4.6 55 .5 4 4.5 26.1 5.7 31.5.3 1.1.8 3.9 1.2 6.2.4 2.4 1.1 4.5 1.6 4.9.5.3.7.9.4 1.4-.3.5 1.3 7.5 3.5 15.5l4 14.5-2.4 6.3c-2.9 7.7-8.8 20.1-9.8 20.5-.5.2-.8.9-.8 1.5 0 .9-6.6 11.7-9.3 15.2-4.9 6.5-10.6 13.5-12 14.9-.9 1-1.7 1.9-1.7 2.1 0 .2 3.9-1 8.8-2.7 9.8-3.4 24.3-10.3 25.4-12.1.4-.7.8-.8.8-.4 0 1.1 11.4-6.7 18.5-12.7 8.7-7.3 15.9-15.1 21.3-23.1 8.5-12.5 8.3-11.2 3.5-30.6-2.3-9.3-4.4-18.4-4.7-20.2-.6-3.3-.9-4.8-2.6-13.2-1.6-7.8-1.9-9.6-3.1-16.5-.6-3.6-1.3-7.4-1.5-8.5-.5-3-1.3-8.5-1.9-12.5-.2-1.9-1.1-8.2-2-14-.9-5.8-1.8-13.2-2-16.5-.3-3.3-.7-7.8-1-10-1.7-14.7-2.3-27.4-2.5-48.3l-.1-14.4 6.2-8.5 6.2-8.5-2.9-2.4c-1.6-1.3-4.1-3.2-5.6-4.1-1.6-1-2.8-2-2.8-2.4 0-1.6 12.1-8.1 19.5-10.5 6.6-2.2 9.9-2.6 19.5-2.7 6.3 0 12.9.3 14.5.7 1.7.4 3.9.9 5 1 1.1.2 2.7.6 3.5.9 4.7 1.7 8 2.5 8 1.8 0-.4-1.7-3.5-3.7-6.9-4.2-6.8-12.4-15.8-15.4-16.7-1-.4-1.9-1-1.9-1.4 0-.4-2.8-2.2-6.2-3.9-21-10.5-47.8-9.9-72.2 1.8l-8.2 3.9-1.2 6.8c-.7 3.7-1.5 8.1-1.8 9.8-.3 1.6-.9 4.1-1.5 5.5-.5 1.4-1.1 3.6-1.4 4.9-.8 4.1-5.6 16.2-9.6 24.3-2.1 4.3-3.6 7.8-3.2 7.8.4 0-.3.9-1.5 2-1.2 1.2-2.2 2.5-2.2 3 0 1.9-.3 2.5-1.9 3.7-.9.7-1.3 1.3-.8 1.3.4 0 0 .8-.9 1.7-.8 1-3.9 4.9-6.7 8.8-2.8 3.8-6.5 8.5-8.2 10.4-1.6 1.8-2.9 3.7-2.8 4.2.2.5 0 .8-.5.7-.4-.2-2.9 1.8-5.7 4.4-2.7 2.7-5.3 4.8-5.6 4.8-.6 0-11.3-10.7-14.7-14.7-1-1.3-2.3-1.9-2.7-1.5-.5.4-.5.2-.2-.4.4-.6-.9-2.8-2.7-4.8-1.9-2-3.2-3.6-3-3.6.6 0-4.8-7.3-6.1-8.2-.7-.5-.7-.8 0-.8.6 0 .6-.3-.1-.8-1.9-1.3-14.6-25.4-15.9-30.2-.2-1.1-3.7-11.6-4.2-13-.3-.8-.7-2.1-.9-2.9-.1-.7-.8-3.5-1.4-6.1-1.4-5.6-1.4-6.1-2.5-12.3-.5-3.1-1.4-5.1-2.6-5.8-1.1-.5-1.9-.6-1.9-.2 0 .4-.4.3-.8-.3-1.5-2.4-17.1-8.6-24.7-9.9-10.2-1.8-19.4-2.3-26.5-1.4z"/><path d="M219.5 99.6c-7.1 1.6-16.2 3.7-17 3.8-2.3.3-7.5 2.9-7.5 3.7 0 .4.4 1.8.9 3.1s2.4 6.9 4.2 12.5c1.8 5.7 3.6 10.3 4.1 10.3.4 0 .8.8.8 1.7 0 1 .6 2.6 1.4 3.5 1.1 1.6 1.5 1.6 3.4.2 1.2-.8 2.2-1.2 2.2-.9 0 .3.8.1 1.8-.4 3.3-1.7 7.4-2.3 18.1-2.5 10.1-.2 18 1.3 23.3 4.3 1.2.7 2 .6 2.8-.4.7-.8 1-1.5.6-1.5s.1-1.1 1-2.5 1.2-2.5.8-2.5c-.5 0-.4-.4.2-.8 1.2-.8 7-17.2 7.9-22.1.5-3 .4-3.1-6.2-5.1-7-2.2-7.4-2.3-15.6-3.9-4.1-.7-24.5-1.2-27.2-.5zM106 150.4c-8.1 6.5-12.5 10.8-12.2 11.9.1.5-.1.6-.6.3s-3.1 2-5.8 5c-2.7 3.1-5.5 6.2-6.2 7-.7.8-1 1.4-.5 1.4.4 0-.2.8-1.3 1.8-2.8 2.2-11.5 16.2-10.8 17.4.3.4.1.8-.4.8-1.6 0-7.7 16.6-8.9 24.4-.9 6-1 23-.1 27.5.5 2.5 1.1 5.7 1.4 7.1.9 4.9 4.7 15.5 5.8 16.2.6.4.8.8.4.8-1.4 0 10 22 11.5 22 .4 0 .7.7.7 1.5 0 .7.7 1.8 1.6 2.3.9.5 1.5 1.2 1.5 1.5-.1 1.1 6.2 9.7 7.1 9.7.4 0 .8.6.8 1.3 0 .7 1.4 2.6 3 4.2l3.1 3-2.4-4.5c-1.3-2.5-2.8-5.9-3.4-7.5-6.3-17.3-8.3-23.6-9.8-31.2-3.1-15.9-2.3-34.9 2.1-47.3 5.9-16.6 17-30.9 33.6-43.4l7.6-5.7-2.4-9c-2.3-8.7-7-21.6-8.3-23.1-.3-.4-3.5 1.7-7.1 4.6zM348.3 152c-2.9 7-7.3 22.1-7.3 25.2 0 .7 2.6 3.2 5.8 5.5 13.6 10 25.3 23.4 31.2 35.9 1.7 3.7 3.4 7.5 3.6 8.4.2.8.8 3.3 1.4 5.5 4.4 16.7 3 37.3-4.1 59.2-1.7 5.1-3 9.5-2.9 9.9.1.4-.2 1-.7 1.3-.7.5-3.8 7.1-6 13.1-.3.8 1.1-.8 3.3-3.5 2.1-2.8 4.7-5.9 5.7-7 1-1.1 3.2-4.2 5-7 1.7-2.7 3.7-5.6 4.4-6.3.7-.7 1.3-2 1.3-2.8 0-.8.9-2.3 2-3.4 1.2-1.2 1.8-2.5 1.5-3-.4-.6-.3-1 .2-1 2 0 8.5-17.2 11.2-29.7 1.8-8.1 2.2-26.5.6-33.8-.9-4.1-5.7-18.9-6.4-19.5-.3-.3-2.2-3.6-4.1-7.4-3.1-6.1-4.3-8-8-12.3-.5-.7-1-1.5-1-1.8 0-2.6-29-30.5-31.7-30.5-.6 0-1.3-.5-1.5-1.2-.3-.7-1.8 2.1-3.5 6.2zM185.2 370.2c3 4.1 8.8 10.2 8.8 9.2 0-.5.7.2 1.6 1.4.8 1.2 2 2 2.5 1.7.5-.4.9-.2.9.4 0 1.1 9.9 6.7 11.2 6.4.4-.2.8.2.8.9 0 .6.3.8.6.5.4-.3 1.4-.2 2.4.3.9.5 3.2 1.2 5.1 1.6 4.2.9 21.4 1 25.2.1 13.7-3.1 26.9-11.7 34.5-22.5 2.4-3.3 1.6-4.4-1.2-1.6-.9.8-1.6 1.3-1.6.9 0-.3-1 0-2.2.7-1.3.7-2.7 1.1-3.2 1-.4-.2-1.4.2-2 .8-.7.5-1.6.7-1.9.3-.4-.3-.7 0-.7.7s-.3 1.1-.6.7c-.3-.3-2.3.1-4.4.8-2.1.7-4.1 1.1-4.4.8-.3-.4-.6-.2-.6.3s-.8 1-1.7 1c-1 .1-4 .5-6.8 1-5.4.9-25.9 1-31.5.1-3.9-.7-17.4-4.3-20.5-5.6-1.1-.5-3.3-1.4-5-2.2-1.6-.7-3.3-1.3-3.7-1.3-.3-.1-1-.4-1.4-.9-2-2-2.2-.3-.2 2.5z"/></svg>