<svg version="1" xmlns="http://www.w3.org/2000/svg" width="594.667" height="594.667" viewBox="0 0 446.000000 446.000000"><path d="M134.4 32c-10.9 2.3-22.5 11.2-29.7 22.8-5.4 8.6-7.3 14.3-8.7 25-1.5 11.3 1.3 27.2 5.7 32.3.7.9 1 1.9.6 2.2-.3.4-.2.7.4.7.6 0 1.8 1.5 2.7 3.4.8 1.8 4.5 7.2 8.1 12 8 10.6 12.5 17.8 12.5 19.9 0 .9-1.2 2.4-2.7 3.4-1.6.9-3.9 2.8-5.3 4.2-1.4 1.4-3.9 3.7-5.5 5.1-1.7 1.4-4.4 4.6-6.1 7-1.7 2.5-4.5 6.5-6.3 9-3.1 4.5-11.7 27.7-10.7 28.8.3.3.1 1.1-.6 1.9-2.7 3.3-1.7 42 1.2 43.8.5.3 1.1 2.4 1.5 4.7 1 6 6.2 20.6 9.1 25.5 1.3 2.3 2.4 5 2.4 6 0 1.9 5.6 11.4 10.4 17.7l3 3.8-2.2 1.7c-3.7 2.7-6.2 7.4-6.2 11.4 0 10.6 10.7 19.8 34 29.1 11.9 4.7 31.6 10.1 40.4 11.1 2.8.3 5.5 1 6.1 1.5 2.2 1.8 40.9 5.8 58.5 6.1 4.9.1 5.9.3 3.8.9-9.3 2.8-14.9 9-15.6 17.4-.3 4.4 0 6 2.1 9.3 5.3 8.4 13.6 12.5 20.9 10.4 4.6-1.4 9.4-5.3 11.5-9.5.9-1.7 2-3.4 2.6-3.8 2-1.3 1-9.6-1.8-14.4-2.2-3.7-3.9-5.2-8.9-7.5l-6.1-2.8 7.5-.1c17.7-.1 51.6-4.5 46-6-1.4-.4 3.5-.7 10.8-.8 7.3 0 14.7-.6 16.6-1.2 5.2-1.7 7.7-4.9 7.6-10.1-.1-2.4.2-6.5.6-9 .7-5.2-2-12.5-3.7-9.8-.6 1-.8.9-.8-.6.1-5.4-4.4-14.2-11.9-23.4-4.3-5.3-10.4-13.3-13.6-17.9-3.6-5-6.6-8.2-7.7-8.2-1 0-3.3-1.9-5.2-4.3-4.1-5.1-10.2-14-10-14.7 0-.3-.8-2.2-1.8-4.2-1-2.1-1.9-4.9-1.9-6.3 0-3.2-3.8-21-5.3-24.4-.5-1.4-1.1-2.8-1.2-3.1-7.4-21.8-19.3-40.4-35.4-55.8-8.1-7.6-20.7-17-27.1-20.1-3-1.4-5.7-2.9-5.8-3.4-.2-.4-.8-.5-1.3-.1-.5.3-.9.1-.9-.5 0-1.4-14.2-5.8-24.4-7.6-4.9-.8-12.3-1.5-16.6-1.5h-7.6l-4.7-8.8c-2.5-4.8-8.9-14.6-14.1-21.6-8.5-11.5-9.6-13.4-10.2-18.3-1.3-11 3.2-21.3 9.4-21.3 12.4 0 22.5-10.5 21.3-22-.5-4.1-4.2-9.8-8.3-12.6-3-2.1-5.2-2.7-10.5-3-3.8-.2-8.7.1-10.9.6zm108.3 276.3c5.8 3.9 8.1 12.9 4.8 18.7-1.4 2.5-1.4 2.4-1.5-1.7 0-3.3-.7-5-2.9-7.5-2.6-2.9-3.5-3.3-8.1-3.3s-5.5.4-8.1 3.3c-3.1 3.5-3.9 8.5-1.8 12.4 1.9 3.6.1 3-2.5-.9-4.1-6-3.2-16 1.8-20.2 2.7-2.3 9-4.1 12.1-3.5 1.7.3 4.5 1.6 6.2 2.7zm55.3.7c4.8 3.7 6.8 9.4 5.2 14.9-.7 2.2-2.4 5.3-3.7 6.8l-2.4 2.8 1.3-3.9c1.7-5 .6-9.2-3.4-12.9-7.3-6.5-18.9 0-17.8 10 .4 3.1.3 3.3-.9 1.7-3.6-5-2.4-14 2.6-18.8 5.3-5.1 13-5.4 19.1-.6zm-158.9 24.7c1.3 1.6 1.2 1.7-.3.4-1.7-1.3-2.2-2.1-1.4-2.1.2 0 1 .8 1.7 1.7zm202.6 11.5c-.2 1.3-.4.5-.4-1.7-.1-2.2.1-3.2.4-2.3.2 1 .2 2.8 0 4zm-55 16.4c-.3.3-1.2.4-1.9.1-.8-.3-.5-.6.6-.6 1.1-.1 1.7.2 1.3.5zm-47.4 1.1c-.7.2-2.1.2-3 0-1-.3-.4-.5 1.2-.5 1.7 0 2.4.2 1.8.5zm39.5 0c-1 .2-2.6.2-3.5 0-1-.3-.2-.5 1.7-.5s2.7.2 1.8.5zm-15 1c-3.2.2-8.4.2-11.5 0-3.2-.2-.6-.3 5.7-.3s8.9.1 5.8.3zm-43.8.7c0 .2-.7.7-1.6 1-.8.3-1.2.2-.9-.4.6-1 2.5-1.4 2.5-.6zm84.6 1.4c-1 .2-2.2 0-2.8-.6-.6-.6 0-.7 1.9-.4 2.1.5 2.3.7.9 1zm-109.3-.1c-1.3.2-3.3.2-4.5 0-1.3-.2-.3-.4 2.2-.4s3.5.2 2.3.4zm18 0c-1.3.2-3.5.2-5 0-1.6-.2-.5-.4 2.2-.4 2.8 0 4 .2 2.8.4zM261 380c4.8 4.8.6 11.8-6.7 11.1-2.3-.2-5.3-4-5.3-6.6 0-3.4 3.3-6.5 7-6.5 1.7 0 3.9.9 5 2zM323.1 373.7c-4.3.8-10 5.4-12.1 9.7-2.4 5.1-2.5 6.7-.5 13.3 2 6.8 8.7 12.9 15.1 13.9 5.6.8 12.5-2.4 16.8-7.9 2.7-3.4 3.1-4.8 3.4-11.3l.4-7.4-4.3-4.4c-5.6-5.6-11.2-7.3-18.8-5.9zm12.2 7.5c1.7 2.3 1.8 3.1.8 5.7-2.2 5.2-9.5 5.9-12 1.2-4.2-7.7 6-14 11.2-6.9z"/></svg>